<svg xmlns="http://www.w3.org/2000/svg" width="18" height="18" fill="currentColor">
    <path d="M3.813 2.313h10.375a1.5 1.5 0 0 1 1.5 1.5v10.375a1.5 1.5 0 0 1-1.5 1.5H3.813a1.5 1.5 0 0 1-1.5-1.5V3.813a1.5 1.5 0 0 1 1.5-1.5zm10.375 12.375a.5.5 0 0 0 .5-.5V3.813a.5.5 0 0 0-.5-.5H3.813a.5.5 0 0 0-.5.5v10.375a.5.5 0 0 0 .5.5z"/>
    <path d="M12.375 4.438a.5.5 0 0 1-.5-.5v-2.25a.5.5 0 0 1 .5-.5.5.5 0 0 1 .5.5v2.25a.5.5 0 0 1-.5.5zM5.625 4.438a.5.5 0 0 1-.5-.5v-2.25a.5.5 0 0 1 .5-.5.5.5 0 0 1 .5.5v2.25a.5.5 0 0 1-.5.5zM15.188 6.688H2.813a.5.5 0 0 1-.5-.5.5.5 0 0 1 .5-.5h12.375a.5.5 0 0 1 .5.5.5.5 0 0 1-.5.5z"/>
</svg>