<svg xmlns="http://www.w3.org/2000/svg" width="18" height="18" fill="currentColor"><path d="M4.813 2.313h8.375a2.5 2.5 0 0 1 2.5 2.5v8.375a2.5 2.5 0 0 1-2.5 2.5H4.813a2.5 2.5 0 0 1-2.5-2.5V4.813a2.5 2.5 0 0 1 2.5-2.5zm8.375 12.375a1.5 1.5 0 0 0 1.5-1.5V4.813a1.5 1.5 0 0 0-1.5-1.5H4.813a1.5 1.5 0 0 0-1.5 1.5v8.375a1.5 1.5 0 0 0 1.5 1.5z"/><path d="M12.375 4.438a.5.5 0 0 1-.5-.5v-2.25a.5.5 0 0 1 .5-.5.5.5 0 0 1 .5.5v2.25a.5.5 0 0 1-.5.5zM5.625 4.438a.5.5 0 0 1-.5-.5v-2.25a.5.5 0 0 1 .5-.5.5.5 0 0 1 .5.5v2.25a.5.5 0 0 1-.5.5zM15.188 6.688H2.813a.5.5 0 0 1-.5-.5.5.5 0 0 1 .5-.5h12.375a.5.5 0 0 1 .5.5.5.5 0 0 1-.5.5z"/></svg>