<svg xmlns="http://www.w3.org/2000/svg" width="18" height="18" fill="currentColor">
    <circle cx=".844" cy=".844" r=".844" transform="translate(8.156 8.156)"/>
    <path d="M9 7.656A1.344 1.344 0 1 1 7.656 9 1.345 1.345 0 0 1 9 7.656zm0 1.688A.344.344 0 1 0 8.656 9 .344.344 0 0 0 9 9.344z"/>
    <circle cx=".844" cy=".844" r=".844" transform="translate(8.156 3.375)"/>
    <path d="M9 2.875a1.344 1.344 0 1 1-1.344 1.344A1.345 1.345 0 0 1 9 2.875zm0 1.688a.344.344 0 1 0-.344-.344.344.344 0 0 0 .344.344z"/>
    <circle cx=".844" cy=".844" r=".844" transform="translate(8.156 12.938)"/>
    <path d="M9 12.438a1.344 1.344 0 1 1-1.344 1.344A1.345 1.345 0 0 1 9 12.438zm0 1.688a.344.344 0 1 0-.344-.344.344.344 0 0 0 .344.344z"/>
</svg>