<svg xmlns="http://www.w3.org/2000/svg" width="18" height="18" fill="currentColor"><path d="M9.001 5.688a3.313 3.313 0 1 1-3.313 3.313 3.316 3.316 0 0 1 3.313-3.313zm0 5.625a2.313 2.313 0 1 0-2.313-2.312 2.315 2.315 0 0 0 2.313 2.312z"/><path d="M9 16.25A7.25 7.25 0 1 1 16.25 9c0 2.074-.923 3.313-2.469 3.313s-2.469-1.238-2.469-3.312V6.188a.5.5 0 0 1 1 0V9c0 .864.191 2.313 1.469 2.313S15.25 9.864 15.25 9A6.25 6.25 0 1 0 9 15.25a6.959 6.959 0 0 0 3.661-1.041.5.5 0 0 1 .554.833A7.9 7.9 0 0 1 9 16.25z"/></svg>