<svg xmlns="http://www.w3.org/2000/svg" width="18" height="18" fill="currentColor"><path d="M12.378 15.687A10.074 10.074 0 0 1 2.313 5.625a3.91 3.91 0 0 1 3.381-3.866h.007a1.062 1.062 0 0 1 1.1.633l1.484 3.315v.007a1.06 1.06 0 0 1-.088 1 .5.5 0 0 1-.036.048L6.686 8.515a.058.058 0 0 0 0 .044 6.532 6.532 0 0 0 2.772 2.748.051.051 0 0 0 .042 0l1.728-1.47a.5.5 0 0 1 .047-.035 1.063 1.063 0 0 1 1.008-.092h.007l3.323 1.488a1.068 1.068 0 0 1 .633 1.1v.007a3.911 3.911 0 0 1-3.868 3.382zM5.821 2.746a2.907 2.907 0 0 0-2.508 2.878 9.073 9.073 0 0 0 9.063 9.063v.5-.5a2.908 2.908 0 0 0 2.872-2.508.063.063 0 0 0-.038-.063h-.008l-3.311-1.483a.055.055 0 0 0-.044 0l-1.724 1.464a.5.5 0 0 1-.044.034 1.057 1.057 0 0 1-1.045.079 7.517 7.517 0 0 1-3.241-3.214 1.064 1.064 0 0 1 .07-1.045.5.5 0 0 1 .034-.046l1.474-1.752a.062.062 0 0 0 0-.043L5.888 2.796v-.008a.062.062 0 0 0-.067-.042z"/></svg>